<svg xmlns="http://www.w3.org/2000/svg" xmlns:xlink="http://www.w3.org/1999/xlink" width="28" height="20" viewBox="0 0 28 20">
  <defs>
    <rect id="us-a" width="28" height="20"/>
    <linearGradient id="us-e" x1="50%" x2="50%" y1="0%" y2="100%">
      <stop offset="0%" stop-color="#FFF"/>
      <stop offset="100%" stop-color="#F0F0F0"/>
    </linearGradient>
    <path id="us-d" d="M2,2.66666667 C1.63181017,2.66666667 1.33333333,2.36818983 1.33333333,2 C1.33333333,1.63181017 1.63181017,1.33333333 2,1.33333333 C2.36818983,1.33333333 2.66666667,1.63181017 2.66666667,2 C2.66666667,2.36818983 2.36818983,2.66666667 2,2.66666667 Z M4.66666667,2.66666667 C4.29847683,2.66666667 4,2.36818983 4,2 C4,1.63181017 4.29847683,1.33333333 4.66666667,1.33333333 C5.0348565,1.33333333 5.33333333,1.63181017 5.33333333,2 C5.33333333,2.36818983 5.0348565,2.66666667 4.66666667,2.66666667 Z M7.33333333,2.66666667 C6.9651435,2.66666667 6.66666667,2.36818983 6.66666667,2 C6.66666667,1.63181017 6.9651435,1.33333333 7.33333333,1.33333333 C7.70152317,1.33333333 8,1.63181017 8,2 C8,2.36818983 7.70152317,2.66666667 7.33333333,2.66666667 Z M10,2.66666667 C9.63181017,2.66666667 9.33333333,2.36818983 9.33333333,2 C9.33333333,1.63181017 9.63181017,1.33333333 10,1.33333333 C10.3681898,1.33333333 10.6666667,1.63181017 10.6666667,2 C10.6666667,2.36818983 10.3681898,2.66666667 10,2.66666667 Z M3.33333333,4 C2.9651435,4 2.66666667,3.70152317 2.66666667,3.33333333 C2.66666667,2.9651435 2.9651435,2.66666667 3.33333333,2.66666667 C3.70152317,2.66666667 4,2.9651435 4,3.33333333 C4,3.70152317 3.70152317,4 3.33333333,4 Z M6,4 C5.63181017,4 5.33333333,3.70152317 5.33333333,3.33333333 C5.33333333,2.9651435 5.63181017,2.66666667 6,2.66666667 C6.36818983,2.66666667 6.66666667,2.9651435 6.66666667,3.33333333 C6.66666667,3.70152317 6.36818983,4 6,4 Z M8.66666667,4 C8.29847683,4 8,3.70152317 8,3.33333333 C8,2.9651435 8.29847683,2.66666667 8.66666667,2.66666667 C9.0348565,2.66666667 9.33333333,2.9651435 9.33333333,3.33333333 C9.33333333,3.70152317 9.0348565,4 8.66666667,4 Z M10,5.33333333 C9.63181017,5.33333333 9.33333333,5.0348565 9.33333333,4.66666667 C9.33333333,4.29847683 9.63181017,4 10,4 C10.3681898,4 10.6666667,4.29847683 10.6666667,4.66666667 C10.6666667,5.0348565 10.3681898,5.33333333 10,5.33333333 Z M7.33333333,5.33333333 C6.9651435,5.33333333 6.66666667,5.0348565 6.66666667,4.66666667 C6.66666667,4.29847683 6.9651435,4 7.33333333,4 C7.70152317,4 8,4.29847683 8,4.66666667 C8,5.0348565 7.70152317,5.33333333 7.33333333,5.33333333 Z M4.66666667,5.33333333 C4.29847683,5.33333333 4,5.0348565 4,4.66666667 C4,4.29847683 4.29847683,4 4.66666667,4 C5.0348565,4 5.33333333,4.29847683 5.33333333,4.66666667 C5.33333333,5.0348565 5.0348565,5.33333333 4.66666667,5.33333333 Z M2,5.33333333 C1.63181017,5.33333333 1.33333333,5.0348565 1.33333333,4.66666667 C1.33333333,4.29847683 1.63181017,4 2,4 C2.36818983,4 2.66666667,4.29847683 2.66666667,4.66666667 C2.66666667,5.0348565 2.36818983,5.33333333 2,5.33333333 Z M3.33333333,6.66666667 C2.9651435,6.66666667 2.66666667,6.36818983 2.66666667,6 C2.66666667,5.63181017 2.9651435,5.33333333 3.33333333,5.33333333 C3.70152317,5.33333333 4,5.63181017 4,6 C4,6.36818983 3.70152317,6.66666667 3.33333333,6.66666667 Z M6,6.66666667 C5.63181017,6.66666667 5.33333333,6.36818983 5.33333333,6 C5.33333333,5.63181017 5.63181017,5.33333333 6,5.33333333 C6.36818983,5.33333333 6.66666667,5.63181017 6.66666667,6 C6.66666667,6.36818983 6.36818983,6.66666667 6,6.66666667 Z M8.66666667,6.66666667 C8.29847683,6.66666667 8,6.36818983 8,6 C8,5.63181017 8.29847683,5.33333333 8.66666667,5.33333333 C9.0348565,5.33333333 9.33333333,5.63181017 9.33333333,6 C9.33333333,6.36818983 9.0348565,6.66666667 8.66666667,6.66666667 Z M10,8 C9.63181017,8 9.33333333,7.70152317 9.33333333,7.33333333 C9.33333333,6.9651435 9.63181017,6.66666667 10,6.66666667 C10.3681898,6.66666667 10.6666667,6.9651435 10.6666667,7.33333333 C10.6666667,7.70152317 10.3681898,8 10,8 Z M7.33333333,8 C6.9651435,8 6.66666667,7.70152317 6.66666667,7.33333333 C6.66666667,6.9651435 6.9651435,6.66666667 7.33333333,6.66666667 C7.70152317,6.66666667 8,6.9651435 8,7.33333333 C8,7.70152317 7.70152317,8 7.33333333,8 Z M4.66666667,8 C4.29847683,8 4,7.70152317 4,7.33333333 C4,6.9651435 4.29847683,6.66666667 4.66666667,6.66666667 C5.0348565,6.66666667 5.33333333,6.9651435 5.33333333,7.33333333 C5.33333333,7.70152317 5.0348565,8 4.66666667,8 Z M2,8 C1.63181017,8 1.33333333,7.70152317 1.33333333,7.33333333 C1.33333333,6.9651435 1.63181017,6.66666667 2,6.66666667 C2.36818983,6.66666667 2.66666667,6.9651435 2.66666667,7.33333333 C2.66666667,7.70152317 2.36818983,8 2,8 Z"/>
    <filter id="us-c" width="110.7%" height="130%" x="-5.4%" y="-7.5%" filterUnits="objectBoundingBox">
      <feOffset dy="1" in="SourceAlpha" result="shadowOffsetOuter1"/>
      <feColorMatrix in="shadowOffsetOuter1" values="0 0 0 0 0   0 0 0 0 0   0 0 0 0 0  0 0 0 0.06 0"/>
    </filter>
  </defs>
  <g fill="none" fill-rule="evenodd">
    <mask id="us-b" fill="#fff">
      <use xlink:href="#us-a"/>
    </mask>
    <use fill="#FFF" xlink:href="#us-a"/>
    <path fill="#D02F44" d="M0,0 L28,0 L28,1.33333333 L0,1.33333333 L0,0 Z M0,2.66666667 L28,2.66666667 L28,4 L0,4 L0,2.66666667 Z M0,5.33333333 L28,5.33333333 L28,6.66666667 L0,6.66666667 L0,5.33333333 Z M0,8 L28,8 L28,9.33333333 L0,9.33333333 L0,8 Z M0,10.6666667 L28,10.6666667 L28,12 L0,12 L0,10.6666667 Z M0,13.3333333 L28,13.3333333 L28,14.6666667 L0,14.6666667 L0,13.3333333 Z M0,16 L28,16 L28,17.3333333 L0,17.3333333 L0,16 Z M0,18.6666667 L28,18.6666667 L28,20 L0,20 L0,18.6666667 Z" mask="url(#us-b)"/>
    <rect width="12" height="9.333" fill="#46467F" mask="url(#us-b)"/>
    <g mask="url(#us-b)">
      <use fill="#000" filter="url(#us-c)" xlink:href="#us-d"/>
      <use fill="url(#us-e)" xlink:href="#us-d"/>
    </g>
  </g>
</svg>
